<mxfile host="app.diagrams.net" modified="2024-06-02T13:37:22.739Z" agent="Mozilla/5.0 (Windows NT 10.0; Win64; x64) AppleWebKit/537.36 (KHTML, like Gecko) Chrome/125.0.0.0 Safari/537.36" version="24.4.9" etag="HVK2JLo2YZNzE-IvOhNg" type="github">
  <diagram name="Page-1" id="T9Xe04_0yYhEXC5HYD0T">
    <mxGraphModel>
      <root>
        <mxCell id="0" />
        <mxCell id="1" parent="0" />
      </root>
    </mxGraphModel>
  </diagram>
</mxfile>
